# xmcd
#
# Track frame offsets:
#	150
#	17330
#	37507
#	55637
#	73797
#	92735
#	104232
#	123170
#	140600
#	159045
#	179492
#	195795
#	214225
#	231340
#	251367
#	267847
#
# Disc length: 3782 seconds
#
# Revision: 1
# Processed by: cddbd v1.5.1PL0 Copyright (c) Steve Scherf et al.
# Submitted via: audiograbber 1.82.01
#
DISCID=ce0ec410
DTITLE=Various Artist - Direito de Viver 4
DYEAR=2004
DGENRE=Country
TTITLE0=Ivete Sangalo - So Pra Me Ver
TTITLE1=Zeze Di Camargo and Luciano - Quem e ele?
TTITLE2=Bruno and Marrone - Mais Uma Vez
TTITLE3=Fiz Tudo Errado - Leonardo
TTITLE4=Sergio Reis - O Menino da Gaita
TTITLE5=Edson and Hudson - Festa Louca
TTITLE6=Alexandre Pires - Estrela Guia
TTITLE7=Chitanzinho and Xororo - Causa Perdida
TTITLE8=KLB - Chuvas de Verao
TTITLE9=Gian and Giovani - Amor Perfeito
TTITLE10=Rionegro and Solimoes - Madrugada Triste
TTITLE11=Guilherme and Santiago - Acorda para Vida
TTITLE12=Royce do Cavaco - Codinome Beija Flor
TTITLE13=Cleiton and Camargo - Direito de Viver
TTITLE14=Rick and Renner - Minha Luz
TTITLE15=Beth Guzzo - Peao de Verdade
EXTD=
EXTT0=
EXTT1=
EXTT2=
EXTT3=
EXTT4=
EXTT5=
EXTT6=
EXTT7=
EXTT8=
EXTT9=
EXTT10=
EXTT11=
EXTT12=
EXTT13=
EXTT14=
EXTT15=
PLAYORDER=
